PathFileType	4	(X/Y/Z)	C:/Users/beibeiliu/ov580/test_trc\sequence.36_training_dense_left.trc
DataRate	CameraRate	NumFrames	NumMarkers	Units	OrigDataRate	OrigDataStartFrame	OrigNumFrames
120	120	7	19	mm	120	138	165
Frame#	Time	ThumbCMC			ThumbMCP			ThumbIP			ThumbTip			IndexMCP			IndexPIP			IndexTip			MiddleMCP			MiddlePIP			MiddleTip			RingMCP			RingPIP			RingTip			PinkyMCP			PinkyPIP			PinkyTip			BackHand1			BackHand2			BackHand3	
		X0	Y0	Z0	X1	Y1	Z1	X2	Y2	Z2	X3	Y3	Z3	X4	Y4	Z4	X5	Y5	Z5	X6	Y6	Z6	X7	Y7	Z7	X8	Y8	Z8	X9	Y9	Z9	X10	Y10	Z10	X11	Y11	Z11	X12	Y12	Z12	X13	Y13	Z13	X14	Y14	Z14	X15	Y15	Z15	X16	Y16	Z16	X17	Y17	Z17	X18	Y18	Z18	
137	1.14167	-214.596	-5.38733	41.0582	-218.367	18.8683	19.9766	-205.806	30.3965	0.016264	-192.03	42.3788	-14.2177	-196.655	-21.0003	-16.0157	-195.59	-15.0102	-42.7973	-192.474	-6.26135	-63.5393	-173.471	-22.1721	-13.6201	-165.146	-22.1618	-41.6344	-152.524	-16.1519	-63.8562	-152.817	-14.0144	-1.53719	-143.336	-10.7402	-23.196	-138.483	-6.79813	-47.5742	-143.431	0.0798453	8.00404	-142.018	19.386	-6.75088	-155.183	35.7983	-11.4635	-168.614	-24.3708	37.5777	-173.097	-25.5245	61.851	-195.696	-31.8612	39.7369	
138	1.15	-213.836	-7.90941	44.346	-214.659	14.4629	20.385	-204.094	27.722	-3.61789	-189.778	39.0399	-14.6643	-193.128	-26.1134	-17.4386	-188.405	-20.3891	-42.3382	-188.39	-11.2944	-64.7701	-165.494	-28.2653	-14.56	-158.739	-27.3159	-39.41	-148.108	-24.1204	-60.9391	-151.581	-18.2583	-0.326565	-142.45	-14.8295	-23.7008	-132.397	-8.53765	-41.4523	-143.761	-2.35319	6.39827	-143.094	18.4899	-6.12689	-158.978	32.8264	-6.90203	-162.285	-27.7689	35.9193	-172.352	-28.0106	65.0019	-193.065	-34.5171	39.6283	
139	1.15833	-213.365	-9.18407	42.4352	-212.371	12.6898	17.7605	-199.378	23.3214	-0.704874	-186.184	32.7304	-10.9696	-191.683	-28.9329	-15.9754	-187.854	-23.5556	-41.0737	-183.066	-15.8115	-58.6143	-159.09	-30.3817	-12.3068	-154.247	-30.4062	-31.9337	-144.98	-27.3415	-56.6179	-146.586	-18.3342	-0.659063	-136.494	-12.7876	-24.3206	-134.123	-3.87305	-44.3023	-139.34	-5.19882	14.6524	-136.808	12.6149	-3.55359	-154.434	32.49	-5.00652	-162.739	-26.8372	42.9137	-166.737	-29.4397	63.1225	-187.679	-34.2168	46.2087	
140	1.16667	-208.797	-7.54476	45.8352	-211.233	14.6976	22.3455	-199.145	25.7042	1.86835	-181.907	36.8745	-12.1939	-184.548	-25.6293	-12.1716	-181.009	-21.7371	-37.7802	-177.6	-14.4634	-56.5258	-160.235	-26.0966	-6.67918	-148.8	-26.4384	-29.315	-139.193	-23.133	-55.6281	-145.984	-15.0765	1.47449	-139.188	-3.31132	-24.629	-141.618	13.6841	-39.5297	-134.686	-3.31223	16.6414	-129.844	9.92251	-1.67325	-141.111	25.2881	-12.6843	-159.541	-23.3795	44.8179	-167.053	-24.813	71.0107	-187.463	-34.088	45.9353	
141	1.175	-209.022	-3.24836	50.2464	-207.321	17.338	26.055	-201.579	29.3606	4.71826	-185.432	38.5309	-6.38756	-185.917	-21.3274	-6.70389	-181.246	-18.202	-29.6312	-179.148	-11.0005	-55.444	-156.216	-20.7572	-2.33058	-148.677	-20.5096	-31.1662	-138.617	-16.597	-51.2728	-141.34	-5.14318	2.23418	-140.319	11.2738	-17.0018	-147.38	32.5638	-24.7106	-128.615	0.837924	19.6292	-123.077	9.31558	4.98071	-124.951	25.5123	-16.422	-155.979	-18.8106	44.3159	-161.764	-21.7775	70.3078	-182.624	-26.5518	51.3563	
142	1.18333	-209.79	-2.38756	54.999	-208.468	17.6439	28.7984	-201.287	29.7747	7.7854	-186.468	40.1857	-5.15223	-182.446	-20.8695	-3.18207	-176.013	-16.7791	-27.5915	-174.392	-10.463	-48.4408	-156.279	-16.6198	-3.59522	-145.148	-12.7096	-25.8409	-135.717	-0.451759	-50.7008	-144.898	0.857069	6.05436	-143.765	22.3042	-11.7275	-162.619	44.7833	-14.4264	-126.478	6.85397	24.3223	-122.272	13.0109	8.04828	-114.065	24.7836	-8.03284	-155.298	-16.0876	49.0226	-157.886	-18.4066	73.5916	-179.302	-25.2501	55.6918	
143	1.19167	-206.178	-4.74582	55.6187	-205.859	15.8014	31.5427	-202.654	27.631	11.039	-190.459	39.3902	-4.33415	-179.099	-20.7673	-0.790047	-173.894	-19.5729	-23.884	-172.489	-13.0734	-47.1307	-150.137	-12.9664	-1.66972	-143.981	-2.75773	-26.615	-146.307	17.7942	-47.0122	-141.687	4.28754	9.93009	-144.749	28.8691	-9.16481	-159.423	45.5433	-9.05746	-127.48	9.62623	31.926	-118.887	16.213	12.9634	-109.005	28.8323	-4.83404	-152.937	-16.458	49.8951	-155.768	-15.8977	77.3805	-176.051	-23.2401	57.8378	
